<svg xmlns:dc="http://purl.org/dc/elements/1.1/" xmlns:cc="http://creativecommons.org/ns#" xmlns:rdf="http://www.w3.org/1999/02/22-rdf-syntax-ns#" xmlns:svg="http://www.w3.org/2000/svg" xmlns="http://www.w3.org/2000/svg" xmlns:sodipodi="http://sodipodi.sourceforge.net/DTD/sodipodi-0.dtd" xmlns:inkscape="http://www.inkscape.org/namespaces/inkscape" width="110" height="110" id="svg2661" sodipodi:version=".32" inkscape:version=".46" version="1.0" sodipodi:docname="gear 7.svg" inkscape:output_extension="org.inkscape.output.svg.inkscape"><defs id="defs2663"><inkscape:perspective sodipodi:type="inkscape:persp3d" inkscape:vp_x="0 : 526.18109 : 1" inkscape:vp_y="0 : 1000 : 0" inkscape:vp_z="744.09448 : 526.18109 : 1" inkscape:persp3d-origin="372.04724 : 350.78739 : 1" id="perspective2669" /></defs><sodipodi:namedview id="base" pagecolor="#ffffff" bordercolor="#666666" borderopacity="1" gridtolerance="1e4" guidetolerance="10" objecttolerance="10" inkscape:pageopacity="0" inkscape:pageshadow="2" inkscape:zoom=".35" inkscape:cx="375" inkscape:cy="520" inkscape:document-units="px" inkscape:current-layer="layer1" showgrid="false" inkscape:window-width="672" inkscape:window-height="718" inkscape:window-x="600" inkscape:window-y="249" /><g inkscape:label="Layer 1" inkscape:groupmode="layer" id="layer1" transform="translate(-559.28571,-488.79075)"><g id="g27" transform="translate(491.78471,169.30575)"><path d="M176.984 366.951 167.54 363.794C166.386 358.918 164.47 354.338 161.911 350.194L166.353 341.29C163.304 337.269 159.715 333.681 155.695 330.633L146.79 335.075C142.647 332.515 138.067 330.597 133.192 329.444L130.035 320.001C127.571 319.664 125.057 319.485 122.5 319.485 119.943 319.485 117.43 319.664 114.965 320.001L111.808 329.444C106.933 330.597 102.353 332.515 98.209 335.075L89.305 330.633C85.284 333.681 81.696 337.269 78.649 341.29L83.091 350.194C80.531 354.338 78.613 358.918 77.461 363.794L68.017 366.951C67.68 369.414 67.501 371.929 67.501 374.485 67.501 377.041 67.679 379.556 68.017 382.019L77.461 385.176C78.614 390.052 80.531 394.632 83.09 398.776L78.65 407.68C81.697 411.701 85.285 415.289 89.306 418.337L98.21 413.895C102.354 416.455 106.934 418.373 111.809 419.526L114.966 428.968C117.43 429.306 119.944 429.485 122.501 429.485 125.058 429.485 127.571 429.306 130.036 428.968L133.193 419.526C138.068 418.373 142.648 416.455 146.791 413.896L155.696 418.337C159.716 415.289 163.305 411.701 166.352 407.68L161.912 398.776C164.471 394.632 166.387 390.052 167.541 385.176L176.985 382.019C177.322 379.556 177.501 377.041 177.501 374.485 177.501 371.929 177.322 369.414 176.984 366.951zM122.5 412.075C101.74 412.075 84.91 395.246 84.91 374.485 84.91 353.724 101.74 336.895 122.5 336.895 143.26 336.895 160.09 353.724 160.09 374.485 160.09 395.246 143.26 412.075 122.5 412.075z" id="path29" /></g></g></svg>